<svg xmlns="http://www.w3.org/2000/svg" width="13.729" height="17.543" viewBox="0 0 13.729 17.543">
    <g data-name="Group 68401">
        <g data-name="Group 68400">
            <path data-name="Rectangle 18599" style="fill:#b78457" d="M0 0h1.144v1.144H0z" transform="translate(2.288 15.255)"/>
        </g>
    </g>
    <g data-name="Group 68403">
        <g data-name="Group 68402">
            <path data-name="Rectangle 18600" style="fill:#b78457" d="M0 0h1.525v1.144H0z" transform="translate(6.102 16.399)"/>
        </g>
    </g>
    <g data-name="Group 68405">
        <g data-name="Group 68404">
            <path data-name="Rectangle 18601" style="fill:#b78457" d="M0 0h1.525v1.144H0z" transform="translate(3.432 16.399)"/>
        </g>
    </g>
    <g data-name="Group 68407">
        <g data-name="Group 68406">
            <path data-name="Rectangle 18602" style="fill:#b78457" d="M0 0h1.525v1.144H0z" transform="translate(8.771 16.399)"/>
        </g>
    </g>
    <g data-name="Group 68409">
        <g data-name="Group 68408">
            <path data-name="Rectangle 18603" style="fill:#b78457" d="M0 0h1.144v1.144H0z" transform="translate(10.297 15.255)"/>
        </g>
    </g>
    <g data-name="Group 68411">
        <g data-name="Group 68410">
            <path data-name="Rectangle 18604" style="fill:#b78457" d="M0 0h1.144v1.144H0z" transform="translate(4.958 15.255)"/>
        </g>
    </g>
    <g data-name="Group 68413">
        <g data-name="Group 68412">
            <path data-name="Rectangle 18605" style="fill:#b78457" d="M0 0h1.144v1.144H0z" transform="translate(7.627 15.255)"/>
        </g>
    </g>
    <g data-name="Group 68415">
        <g data-name="Group 68414">
            <path data-name="Path 58921" d="M55.652 0v17.543h2.288V16.4H56.8V1.144h11.437V16.4h-1.144v1.144h2.288V0z" transform="translate(-55.652)" style="fill:#b78457"/>
        </g>
    </g>
    <g data-name="Group 68417">
        <g data-name="Group 68416">
            <path data-name="Rectangle 18606" style="fill:#b78457" d="M0 0h9.153v1.144H0z" transform="translate(2.288 2.67)"/>
        </g>
    </g>
    <g data-name="Group 68419">
        <g data-name="Group 68418">
            <path data-name="Rectangle 18607" style="fill:#b78457" d="M0 0h5.339v1.144H0z" transform="translate(2.288 12.204)"/>
        </g>
    </g>
    <g data-name="Group 68421">
        <g data-name="Group 68420">
            <path data-name="Rectangle 18608" style="fill:#b78457" d="M0 0h5.339v1.144H0z" transform="translate(2.288 8.771)"/>
        </g>
    </g>
    <g data-name="Group 68423">
        <g data-name="Group 68422">
            <path data-name="Rectangle 18609" style="fill:#b78457" d="M0 0h5.339v1.144H0z" transform="translate(2.288 5.72)"/>
        </g>
    </g>
    <g data-name="Group 68425">
        <g data-name="Group 68424">
            <path data-name="Rectangle 18610" style="fill:#b78457" d="M0 0h2.288v1.144H0z" transform="translate(9.153 5.72)"/>
        </g>
    </g>
    <g data-name="Group 68427">
        <g data-name="Group 68426">
            <path data-name="Rectangle 18611" style="fill:#b78457" d="M0 0h2.288v1.144H0z" transform="translate(9.153 8.771)"/>
        </g>
    </g>
    <g data-name="Group 68429">
        <g data-name="Group 68428">
            <path data-name="Rectangle 18612" style="fill:#b78457" d="M0 0h2.288v1.144H0z" transform="translate(9.153 12.204)"/>
        </g>
    </g>
</svg>
