<svg xmlns="http://www.w3.org/2000/svg" width="15" height="14" viewBox="0 0 15 14">
    <g data-name="Layer 2">
        <g data-name="Layer 2">
            <path data-name="Path 864" d="M2.613 11.2h7.972a.613.613 0 0 0 .613-.613V2.613A.613.613 0 0 0 10.585 2H7.519v.613h3.066v5.213H7.519v.613h3.066v2.146H6.6V8.132h-.614v2.453H2.613V6.6h3.68v-.614h-.92v-.92H4.76v.92H2.613V2.613h3.066V2H2.613A.613.613 0 0 0 2 2.613v7.972a.613.613 0 0 0 .613.615z" transform="translate(-.634 -.917)" style="fill:#ccc"/>
            <path data-name="Path 865" d="m9.489 18.755.38.38H2.78l.38-.38-.435-.435-1.135 1.135 1.116 1.122.435-.435-.4-.392h7.128l-.4.392.435.435 1.135-1.135-1.121-1.122z" transform="translate(-.475 -7.228)" style="fill:#ccc"/>
            <path data-name="Path 866" d="M19.749 9.881v-7.12l.392.4.435-.435-1.134-1.136-1.122 1.116.435.435.38-.38V9.85l-.38-.38-.435.435 1.135 1.135 1.122-1.122-.435-.429z" transform="translate(-6.945 -.758)" style="fill:#ccc"/>
        </g>
    </g>
</svg>
