<svg xmlns="http://www.w3.org/2000/svg" width="14" height="14" viewBox="0 0 14 14">
    <g data-name="Layer 2">
        <g data-name="Layer 2" transform="translate(.91 1.888)">
            <path data-name="Path 861" d="M8.132 7.72h-4.6V4.654a.613.613 0 0 1 1.184-.221h-.263v.613h1.226v-.613h-.331a1.231 1.231 0 1 0-2.448.221V7.72H2v3.066a2.453 2.453 0 0 0 2.146 2.422v.644h.614v-.613h6.746v.613h.613v-.644a2.453 2.453 0 0 0 2.146-2.422V7.72zM6.6 8.333h4.906v1.895a1.067 1.067 0 0 0-.368.251c-.1.1-.147.135-.245.135s-.141-.031-.245-.135a.9.9 0 0 0-1.349 0c-.1.1-.147.135-.245.135s-.141-.031-.245-.135a.9.9 0 0 0-.675-.307.908.908 0 0 0-.675.307c-.1.1-.147.135-.245.135s-.141-.031-.245-.135a1.067 1.067 0 0 0-.368-.251zm7.052 2.453a1.84 1.84 0 0 1-1.84 1.84H4.453a1.84 1.84 0 0 1-1.84-1.84V8.333h3.373v2.453h.307c.1 0 .141.031.245.135a.889.889 0 0 0 1.343 0c.1-.1.147-.135.245-.135s.135.031.239.135a.889.889 0 0 0 1.343 0c.1-.1.147-.135.245-.135s.147.031.258.135a.9.9 0 0 0 1.343 0c.1-.1.147-.135.245-.135h.307V8.333h1.545z" transform="translate(-2 -3.312)" style="fill:#ccc"/>
            <circle data-name="Ellipse 253" transform="translate(9.09 3.112)" style="fill:#ccc"/>
            <circle data-name="Ellipse 254" cx=".613" cy=".613" r=".613" transform="translate(10.425 .729)" style="fill:#ccc"/>
            <ellipse data-name="Ellipse 255" cx=".5" rx=".5" transform="translate(11.09 3.112)" style="fill:#ccc"/>
        </g>
    </g>
</svg>
