<svg data-name="Group 68307" xmlns="http://www.w3.org/2000/svg" width="15.743" height="15.743" viewBox="0 0 15.743 15.743">
    <path data-name="Path 58830" d="M23.138 14.532h-1.817V.606A.605.605 0 0 0 20.716 0h-9.688a.605.605 0 0 0-.606.606v13.926H8.606a.606.606 0 1 0 0 1.211h6.055a.605.605 0 0 0 .606-.606v-2.421h1.211v2.422a.605.605 0 0 0 .606.606h6.055a.606.606 0 1 0 0-1.211zM17.083 11.5h-2.422a.605.605 0 0 0-.606.606v2.422h-2.422V1.211h8.477v13.321h-2.422V12.11a.605.605 0 0 0-.605-.61z" transform="translate(-8)" style="fill:#b78457"/>
    <path data-name="Path 58831" d="M16.606 4a.605.605 0 0 0-.606.606v7.266a.606.606 0 1 0 1.211 0V4.606A.605.605 0 0 0 16.606 4z" transform="translate(-11.156 -1.578)" style="fill:#b78457"/>
    <path data-name="Path 58832" d="M20.606 4a.605.605 0 0 0-.606.606v7.266a.606.606 0 1 0 1.211 0V4.606A.605.605 0 0 0 20.606 4z" transform="translate(-12.734 -1.578)" style="fill:#b78457"/>
    <path data-name="Path 58833" d="M24.606 12.477a.605.605 0 0 0 .606-.606V4.606a.606.606 0 1 0-1.211 0v7.266a.605.605 0 0 0 .605.605z" transform="translate(-14.312 -1.578)" style="fill:#b78457"/>
</svg>
