<svg data-name="Layer 2" xmlns="http://www.w3.org/2000/svg" width="24" height="24" viewBox="0 0 24 24">
    <g data-name="Layer 2" transform="translate(2.176 3.12)">
        <path data-name="Path 750" d="m21.12 10.78-.63-.94a1.74 1.74 0 0 1-.11-.18 4 4 0 0 1-.5-1.29v-.1l-.3-1.8a4 4 0 0 0-4-3.35H8.39a4 4 0 0 0-4 3.35l-.3 1.8v.1a3.62 3.62 0 0 1-.5 1.3 1.4 1.4 0 0 1-.1.16l-.64 1a4 4 0 0 0-.62 2.88l.46 2.77a1.92 1.92 0 0 0 .53 1v2.13a1.25 1.25 0 0 0 1.28 1.27h2a1.25 1.25 0 0 0 1.25-1.25v-1.5h8.5v1.5a1.25 1.25 0 0 0 1.25 1.25h2a1.25 1.25 0 0 0 1.25-1.25v-2.14a1.92 1.92 0 0 0 .53-1l.46-2.79a4 4 0 0 0-.62-2.92zM5.92 6.71a2.5 2.5 0 0 1 2.47-2.08h7.22a2.51 2.51 0 0 1 2.47 2.09l.18 1.08a.5.5 0 0 1-.49.58H6.23a.5.5 0 0 1-.49-.58zm.33 12.66h-1.5v-1.24h1.5zm13 0h-1.5v-1.24h1.5zm1-6-.45 2.83a.5.5 0 0 1-.5.42H4.69a.5.5 0 0 1-.49-.41l-.46-2.78a2.42 2.42 0 0 1 .39-1.79l.64-1a4.34 4.34 0 0 0 .43-.79h13.6a4.78 4.78 0 0 0 .44.8l.63.94a2.48 2.48 0 0 1 .39 1.83z" transform="translate(-2.176 -3.12)" style="fill:#b78457"/>
        <rect data-name="Rectangle 966" width="3" height="2" rx=".5" transform="translate(3.824 9.63)" style="fill:#b78457"/>
        <rect data-name="Rectangle 967" width="3" height="2" rx=".5" transform="translate(12.824 9.63)" style="fill:#b78457"/>
    </g>
</svg>
