<svg data-name="Envelope Closed" xmlns="http://www.w3.org/2000/svg" width="19" height="19" viewBox="0 0 19 19">
    <path d="M19 0v19H0V0z" style="fill:none"/>
    <path data-name="Vector" d="M1.9 11.083a1.9 1.9 0 0 1-1.9-1.9V1.9A1.9 1.9 0 0 1 1.9 0h10.846a1.9 1.9 0 0 1 1.9 1.9v7.283a1.9 1.9 0 0 1-1.9 1.9z" style="stroke:#b78457;stroke-linecap:round;stroke-linejoin:round;stroke-width:1.5px;stroke-dasharray:0 0;fill:none" transform="translate(2.177 3.958)"/>
    <path data-name="Vector" d="M13.023 0 7.584 5.4a1.487 1.487 0 0 1-2.145 0L0 0" transform="translate(2.985 4.568)" style="stroke:#b78457;stroke-linecap:round;stroke-linejoin:round;stroke-width:1.5px;stroke-dasharray:0 0;fill:none"/>
    <path data-name="Vector" d="m0 0 4.821 4.679" transform="translate(11.186 9.436)" style="stroke:#b78457;stroke-linecap:round;stroke-linejoin:round;stroke-width:1.5px;stroke-dasharray:0 0;fill:none"/>
    <path data-name="Vector" d="M0 4.615 4.877 0" transform="translate(2.992 9.5)" style="stroke:#b78457;stroke-linecap:round;stroke-linejoin:round;stroke-width:1.5px;stroke-dasharray:0 0;fill:none"/>
</svg>
