<svg xmlns="http://www.w3.org/2000/svg" width="16.611" height="14.893" viewBox="0 0 16.611 14.893">
    <g style="isolation:isolate">
        <g style="fill:none;stroke-miterlimit:10" data-name="1. Icons / Line / ab-testing">
            <path d="M8.305 14.893a.458.458 0 0 1-.251-.075C2.635 11.281 0 8.261 0 5.585A5.926 5.926 0 0 1 1.378 1.5 4.844 4.844 0 0 1 5.075 0a3.818 3.818 0 0 1 3.23 1.448A3.818 3.818 0 0 1 11.535 0a4.844 4.844 0 0 1 3.7 1.5 5.926 5.926 0 0 1 1.378 4.083c0 2.676-2.635 5.7-8.055 9.233a.458.458 0 0 1-.253.077zM5.075.931c-2.6 0-4.152 1.74-4.152 4.654 0 2.264 2.484 5.052 7.383 8.287 4.9-3.234 7.383-6.022 7.383-8.287 0-2.914-1.552-4.654-4.153-4.654a2.85 2.85 0 0 0-2.818 1.605.461.461 0 0 1-.826 0A2.85 2.85 0 0 0 5.075.931z" style="stroke:none"/>
            <path d="M8.305 14.893a.458.458 0 0 1-.25-.075C2.635 11.281 0 8.261 0 5.585c0-1.684.477-3.096 1.378-4.083C2.276.519 3.554 0 5.075 0c1.415 0 2.502.487 3.23 1.448C9.035.488 10.121 0 11.535 0c1.521 0 2.8.52 3.697 1.502.902.987 1.379 2.4 1.379 4.083 0 2.676-2.635 5.696-8.055 9.233a.458.458 0 0 1-.25.075zM5.075.931C2.475.93.923 2.67.923 5.585c0 2.264 2.484 5.052 7.382 8.287 4.899-3.234 7.383-6.022 7.383-8.287 0-2.914-1.552-4.654-4.153-4.654-1.36 0-2.282.525-2.817 1.605-.158.316-.667.316-.825 0C7.358 1.456 6.436.93 5.075.93z" style="fill:#b78457;stroke:none"/>
        </g>
    </g>
</svg>
