<svg xmlns="http://www.w3.org/2000/svg" width="77" height="82.619" viewBox="0 0 77 82.619">
    <g data-name="Buttons / Outline / Fab / Light Copy 2">
        <path data-name="Buttons / Shadow" style="fill:#7c6fe4;opacity:.6" d="M0 0h17v22.619H0z" transform="translate(30 30)"/>
        <g data-name="Mask Copy" style="fill:#fff;stroke:#cae4f1;stroke-miterlimit:10" transform="translate(21 10.542)">
            <rect width="34" height="36" rx="17" style="stroke:none"/>
            <rect x=".5" y=".5" width="33" height="35" rx="16.5" style="fill:none"/>
        </g>
        <path d="M5.035 4.629h4.738c0 .316.1.526.1.842a5.133 5.133 0 0 1-1.318 3.78 4.492 4.492 0 0 1-3.52 1.479A5.207 5.207 0 0 1 0 5.365 5.207 5.207 0 0 1 5.035 0a4.709 4.709 0 0 1 3.356 1.368L7.009 2.841A2.549 2.549 0 0 0 5.035 2a3.29 3.29 0 0 0-3.159 3.365 3.439 3.439 0 0 0 .913 2.393 3.022 3.022 0 0 0 2.246.973A2.723 2.723 0 0 0 7.9 6.417H5.035z" style="fill:#dd4b39" transform="translate(33.022 23.289)" data-name="Icons / Icons Pack / Forward"/>
    </g>
</svg>
