<svg xmlns="http://www.w3.org/2000/svg" width="209.016" height="199.083" viewBox="0 0 209.016 199.083">
    <g data-name="Group 69044">
        <path data-name="Path 59892" d="M180.884 133.842a24.83 24.83 0 0 1-24.8-24.8V105.5h7.085v3.543a17.713 17.713 0 1 0 35.426 0v-24.8a14.185 14.185 0 0 0-14.171-14.171H173.8c-7.68 0-11.181-1.229-15.715-4.538-1.842 6.788-2 8.006-2 10.111.007 5.3 6.433 15.683 21.256 15.683v7.085C158.87 98.416 149.014 85.2 149 75.655c0-3.667.507-5.764 3.67-17.157l1.46-5.247 4.209 3.458c6.419 5.286 7.868 6.281 15.46 6.281h10.628a21.277 21.277 0 0 1 21.256 21.256v24.8a24.83 24.83 0 0 1-24.799 24.796z" transform="translate(-117.116 -51.667)" style="fill:#fff"/>
        <path data-name="Rectangle 19713" transform="translate(38.969 37.221)" style="fill:#fff" d="M0 0h7.085v20.156H0z"/>
        <path data-name="Path 59893" d="M248.566 169.15h-49.6a14.185 14.185 0 0 1-14.166-14.17h7.085a7.1 7.1 0 0 0 7.085 7.085h49.6a7.085 7.085 0 1 0 0-14.171h-40.84l-10.9-36.216a24.838 24.838 0 0 0-18.376-17.065L160 90.511V74.2h7.085v10.628l12.9 2.866a31.942 31.942 0 0 1 23.622 21.943l9.384 31.172h35.575a14.171 14.171 0 0 1 0 28.341z" transform="translate(-89.147 1.591)" style="fill:#fff"/>
        <path data-name="Rectangle 19714" transform="translate(31.884 184.912)" style="fill:#fff" d="M0 0h7.085v14.171H0z"/>
        <path data-name="Rectangle 19715" transform="translate(95.651 128.23)" style="fill:#fff" d="M0 0h7.085v70.853H0z"/>
        <path data-name="Path 59894" d="M168.171 88.628C160.224 88.628 154 83.962 154 78h7.085c0 1.445 2.76 3.543 7.085 3.543s7.085-2.1 7.085-3.543h7.085c.001 5.962-6.223 10.628-14.169 10.628z" transform="translate(-104.403 11.261)" style="fill:#fff"/>
        <path data-name="Path 59895" d="m154.734 165.313-2.55-24.217 7.044-.74 1.782 16.9 42.578-6.082-6.341-60.26L154.668 97l2.339 22.245-7.044.74-3.063-29.033 56.616-8.089 7.829 74.361z" transform="translate(-122.445 23.626)" style="fill:#fff"/>
        <path data-name="Path 59896" d="M154.171 169.15A14.185 14.185 0 0 1 140 154.98a13.839 13.839 0 0 1 .666-4.124l12.406-41.222a31.949 31.949 0 0 1 23.622-21.94l12.9-2.866V74.2h7.085v16.311l-18.45 4.1a24.835 24.835 0 0 0-18.372 17.061l-12.413 41.243a6.8 6.8 0 0 0-.361 2.062 6.851 6.851 0 0 0 8.052 6.983l46.171-7.1a7.065 7.065 0 0 0-1.084-14.05 7.8 7.8 0 0 0-1.045.113l-37.385 5.718-1.07-7 37.343-5.711a13.873 13.873 0 0 1 2.157-.205 14.149 14.149 0 0 1 2.164 28.136l-46.079 7.089a14.169 14.169 0 0 1-2.136.2z" transform="translate(-140 1.591)" style="fill:#fff"/>
        <path data-name="Path 59897" d="M240.768 118.562a7.059 7.059 0 0 1-4.623-1.768L215.969 98.9l-20.154 17.869a7.149 7.149 0 0 1-9.654-.287l-7.085-7.085a7.042 7.042 0 0 1 .28-10.249l31.972-28.4a7.069 7.069 0 0 1 9.25-.028l32 28.43a7.042 7.042 0 0 1 .273 10.256l-7.078 7.078a7.037 7.037 0 0 1-5.005 2.078zm-24.863-42.511-31.82 28.384 7.085 7.043 24.8-22.039 24.855 22.035 7.007-7.061z" transform="translate(-45.922 -11.588)" style="fill:#b78457"/>
        <path data-name="Path 59898" d="m174.96 92.05-7.207-2.72 12.189-12.493A11.887 11.887 0 0 1 188.675 73h39.337v7.085h-39.337a4.784 4.784 0 0 0-3.511 1.541z" transform="translate(-75.201 -1.452)" style="fill:#b78457"/>
        <path data-name="Rectangle 19716" transform="translate(141.706 103.431)" style="fill:#b78457" d="M0 0h7.085v38.512H0z"/>
        <path data-name="Rectangle 19717" transform="translate(191.302 103.431)" style="fill:#b78457" d="M0 0h7.085v46.054H0z"/>
        <path data-name="Rectangle 19718" transform="translate(167.338 145.943)" style="fill:#fff" d="M0 0h38.135v7.085H0z"/>
        <path data-name="Rectangle 19719" transform="translate(117.877 103.431)" style="fill:#b78457" d="M0 0h27.371v7.085H0z"/>
        <path data-name="Path 59899" d="M212.341 121.264h-7.085V97.171a7.085 7.085 0 1 0-14.171 0v20.551H184V97.171a14.171 14.171 0 1 1 28.341 0z" transform="translate(-28.124 23.974)" style="fill:#b78457"/>
        <path data-name="Rectangle 19720" transform="rotate(-45 130.315 -205.243)" style="fill:#fff" d="M0 0h20.451v7.084H0z"/>
        <path data-name="Rectangle 19721" transform="rotate(-78.679 85.234 -81.95)" style="fill:#fff" d="M0 0h18.064v7.085H0z"/>
        <path data-name="Rectangle 19722" transform="rotate(-11.31 61.964 -554.197)" style="fill:#fff" d="M0 0h7.085v18.064H0z"/>
    </g>
</svg>
