<svg xmlns="http://www.w3.org/2000/svg" width="184.352" height="179.824" viewBox="0 0 184.352 179.824">
    <g data-name="Group 69043">
        <path data-name="Path 59880" d="m444.617 114.742-27.031-27.031 14.181-14.181 12.85 12.85 15.674-15.674 4.543 4.543-20.217 20.218-12.85-12.85-5.095 5.095 17.945 17.945L476.1 74.171l4.543 4.543z" transform="translate(-369.494 -23.542)" style="fill:#b78457"/>
        <path data-name="Path 59881" d="M406.272 106.364a89.308 89.308 0 0 1-3.656-5.262l5.4-3.482q1.624 2.511 3.405 4.9z" transform="translate(-402.616 36.004)" style="fill:#fff"/>
        <path data-name="Path 59882" d="M429.689 124.156a93.319 93.319 0 0 1-23.789-18.222l4.677-4.411a86.926 86.926 0 0 0 22.148 16.977z" transform="translate(-395.35 44.642)" style="fill:#b78457"/>
        <path data-name="Path 59883" d="M457.857 90.459a86.532 86.532 0 0 0-6.881-17.849l5.7-2.962a93.207 93.207 0 0 1 7.392 19.179z" transform="translate(-295.615 -25.885)" style="fill:#fff"/>
        <path data-name="Path 59884" d="M451.977 74.29q-1.59-2.453-3.335-4.79l5.143-3.845q1.874 2.506 3.579 5.14z" transform="translate(-300.779 -34.72)" style="fill:#fff"/>
        <path data-name="Path 59885" d="M457.425 115.85a6.425 6.425 0 1 1 6.425-6.425 6.434 6.434 0 0 1-6.425 6.425zm0-6.425z" transform="translate(-295.561 47.91)" style="fill:#fff"/>
        <path data-name="Path 59886" d="m429.469 127.717-.553-6.4A70.286 70.286 0 0 0 475.9 97.506l4.832 4.234a76.682 76.682 0 0 1-51.263 25.977z" transform="translate(-344.425 35.754)" style="fill:#fff"/>
        <path data-name="Path 59887" d="M431.609 111.607c-2.22 0-4.472-.1-6.692-.289l.552-6.4c2.037.177 4.1.263 6.139.263z" transform="translate(-353.273 52.154)" style="fill:#fff"/>
        <path data-name="Path 59888" d="M466.709 200.142a77.117 77.117 0 0 1-35.261-135.761l4.057 4.983a70.688 70.688 0 0 0 32.316 124.446z" transform="translate(-401.766 -37.539)" style="fill:#fff"/>
        <path data-name="Path 59889" d="M488.727 223.657a22.343 22.343 0 0 1-15.983-6.669L447.612 191.6l4.568-4.52 25.132 25.389a16.057 16.057 0 1 0 20.647-24.429l-31.467-22.186 1.307-2.5a70.767 70.767 0 0 0-30.947-96.079l2.879-5.741a77.195 77.195 0 0 1 35.024 102.283l26.906 18.967a22.479 22.479 0 0 1-12.934 40.871z" transform="translate(-326.863 -43.834)" style="fill:#fff"/>
        <path data-name="Path 59891" d="M0 0h106.016v6.425H0z" transform="translate(23.722 105.933)" style="fill:#b78457"/>
        <path data-name="Path 59890" d="M511.8 165.172h-6.425v-48.189h9.638l-48.225-54.617-22.45 23.921V65.581H434.7v30.947L415.435 117l9.628-.019v48.189h-6.425v-41.762h-3.213a6.4 6.4 0 0 1-4.677-10.8l17.528-18.627v-28.4a6.434 6.434 0 0 1 6.425-6.425h9.638a6.434 6.434 0 0 1 6.425 6.425v4.5l11.4-12.121a6.537 6.537 0 0 1 9.416.128l48.234 54.679a6.384 6.384 0 0 1-4.8 10.637H511.8z" transform="translate(-388.491 -56.026)" style="fill:#b78457"/>
        <path data-name="Rectangle 19711" transform="translate(52.635 118.784)" style="fill:#fff" d="M0 0h6.425v6.425H0z"/>
        <path data-name="Rectangle 19712" transform="translate(65.486 118.784)" style="fill:#fff" d="M0 0h25.701v6.425H0z"/>
    </g>
</svg>
