<svg xmlns="http://www.w3.org/2000/svg" width="18.187" height="18.652" viewBox="0 0 18.187 18.652">
    <path d="M8.139 15.65a3.079 3.079 0 0 1 .93 2.142.353.353 0 0 1-.345.361h-.007a.353.353 0 0 1-.352-.345 2.4 2.4 0 0 0-2.391-2.336H5.9a.353.353 0 1 1-.022-.705h.1a3.08 3.08 0 0 1 2.161.883zM5.624 3.139h8.73a.353.353 0 0 0 0-.705h-8.73a.353.353 0 0 0 0 .705zm8.128 2.5a.353.353 0 1 0 0-.705H5.624a.353.353 0 0 0 0 .705zm6.08-2.12a.353.353 0 0 0 .353-.353v-.081a.353.353 0 1 0-.705 0v.084a.353.353 0 0 0 .351.353zm-3.075.834a.353.353 0 0 0-.353.353v.084a.353.353 0 1 0 .705 0v-.082a.353.353 0 0 0-.353-.353zM5.533 7.791a.353.353 0 0 1 .353-.353h11.636a1.637 1.637 0 0 1 .814-.447v-.7A1.587 1.587 0 0 1 17.72 6a1.6 1.6 0 1 1-1.769-2.655 1.6 1.6 0 0 1 1.143-1.832 1.6 1.6 0 0 1 3.191 0 1.6 1.6 0 0 1 1.143 1.832A1.6 1.6 0 1 1 19.659 6a1.587 1.587 0 0 1-.617.288v.7a1.637 1.637 0 0 1 .814.447h2.749a.353.353 0 0 1 0 .705H19.7a.353.353 0 0 1-.275-.132.942.942 0 0 0-1.47 0 .353.353 0 0 1-.275.132H5.886a.353.353 0 0 1-.353-.349zm12.8-2.242V4.487a.353.353 0 1 1 .705 0v1.062a.893.893 0 0 0 .342-.26.353.353 0 0 1 .549 0 .893.893 0 1 0 .971-1.412.353.353 0 0 1-.219-.475.893.893 0 0 0-.781-1.241.353.353 0 0 1-.331-.411.905.905 0 0 0 .013-.151.893.893 0 1 0-1.772.151.353.353 0 0 1-.331.412A.893.893 0 0 0 16.7 3.4a.353.353 0 0 1-.219.475.893.893 0 1 0 .963 1.411.353.353 0 0 1 .549 0 .893.893 0 0 0 .344.263zm4.269 6.894h-7.826a.353.353 0 0 0 0 .705h7.829a.353.353 0 0 0 0-.705zm0-2.5h-9.935a.353.353 0 0 0 0 .705h9.939a.353.353 0 0 0 0-.705zm0 5h-6.73a.353.353 0 0 0 0 .705h6.734a.353.353 0 0 0 0-.705zm0 2.5h-6.313a.353.353 0 1 0 0 .705h6.317a.353.353 0 0 0 0-.705zM6.053 12.316h-.178a.353.353 0 0 0 .022.705h.156a4.928 4.928 0 0 1 4.9 4.786.353.353 0 0 0 .352.345h.008a.353.353 0 0 0 .345-.361 5.606 5.606 0 0 0-5.6-5.476zm.077-2.379h-.255a.353.353 0 1 0 .022.705h.233a7.378 7.378 0 0 1 7.334 7.165.353.353 0 0 0 .352.345h.008a.353.353 0 0 0 .345-.361A8.042 8.042 0 0 0 6.13 9.937z" transform="translate(-5.021 .25)" style="fill:#b78457;stroke:#b78457;stroke-width:.5px"/>
</svg>
