<svg xmlns="http://www.w3.org/2000/svg" width="16" height="12.193" viewBox="0 0 16 12.193">
    <path d="m15.779 70.615-5.334 5.334a.763.763 0 0 1-1.3-.54v-3.048H4.826a.76.76 0 0 1-.762-.762v-3.048a.76.76 0 0 1 .762-.762h4.317v-3.048a.764.764 0 0 1 1.3-.54l5.334 5.334a.768.768 0 0 1 .002 1.08zM6.1 75.79v-1.27a.382.382 0 0 0-.381-.381H3.048a1.015 1.015 0 0 1-1.016-1.016v-6.1a1.015 1.015 0 0 1 1.016-1.016h2.667a.382.382 0 0 0 .385-.377v-1.27a.382.382 0 0 0-.381-.381H3.048A3.049 3.049 0 0 0 0 67.027v6.1a3.049 3.049 0 0 0 3.048 3.043h2.667a.382.382 0 0 0 .385-.38z" transform="translate(0 -63.979)" style="fill:#b78457"/>
</svg>
