<svg data-name="Layer 2" xmlns="http://www.w3.org/2000/svg" width="24" height="24" viewBox="0 0 24 24">
    <g data-name="Layer 2">
        <path data-name="Path 748" d="M7.25 6.25v8.92a.25.25 0 0 0 .25.25h1a.25.25 0 0 0 .25-.25v-2h6.5v2a.25.25 0 0 0 .25.25h1a.25.25 0 0 0 .25-.25V6.25a2.75 2.75 0 0 0-.81-1.94l-1.23-1.24a.25.25 0 0 0-.35 0l-.71.71a.25.25 0 0 0 0 .35l1.24 1.24a1.26 1.26 0 0 1 .37.88v.42H8.75v-.41a2.75 2.75 0 0 0-.81-1.95L6.71 3.07a.25.25 0 0 0-.35 0l-.71.71a.25.25 0 0 0 0 .35l1.23 1.24a1.26 1.26 0 0 1 .37.88zm8 5.42h-6.5V8.18h6.5z" style="fill:#b78457"/>
        <path data-name="Rectangle 963" transform="translate(2 10.25)" style="fill:#b78457" d="M0 0h4v1.5H0z"/>
        <path data-name="Rectangle 964" transform="translate(18 10.25)" style="fill:#b78457" d="M0 0h4v1.5H0z"/>
        <path data-name="Path 749" d="M18 17.5a3.31 3.31 0 0 0-2.53 1.22 1.78 1.78 0 0 1-2.94 0 3.23 3.23 0 0 0-5.06 0A1.88 1.88 0 0 1 6 19.5a1.88 1.88 0 0 1-1.47-.78A3.31 3.31 0 0 0 2 17.5V19a1.88 1.88 0 0 1 1.47.78A3.31 3.31 0 0 0 6 21a3.31 3.31 0 0 0 2.53-1.22A1.88 1.88 0 0 1 10 19a1.88 1.88 0 0 1 1.47.78 3.24 3.24 0 0 0 5.06 0 1.78 1.78 0 0 1 2.94 0A3.31 3.31 0 0 0 22 21v-1.5a1.88 1.88 0 0 1-1.47-.78A3.31 3.31 0 0 0 18 17.5z" style="fill:#b78457"/>
    </g>
</svg>
