<svg xmlns="http://www.w3.org/2000/svg" width="14" height="14" viewBox="0 0 14 14">
    <g data-name="Layer 2">
        <g data-name="Layer 2">
            <path data-name="Path 875" d="M13.652 9.372V4h-.613v1.484h-1.227a8.23 8.23 0 0 0-7.359 0H3.226V4h-.613v5.366A.613.613 0 0 0 2 9.979v2.453a.613.613 0 0 0 .613.613h.92v.767h.613v-.767h7.972v.767h.613v-.767h.92a.613.613 0 0 0 .613-.613V9.979a.613.613 0 0 0-.612-.607zM4.453 6.1H4.6l.129-.067a7.617 7.617 0 0 1 6.813 0l.129.067h1.368v3.266h-.613v-.46A1.226 1.226 0 0 0 11.2 7.679H9.052a1.226 1.226 0 0 0-.92.423 1.226 1.226 0 0 0-.92-.423H5.066A1.226 1.226 0 0 0 3.84 8.906v.46h-.614V6.1zm3.373 3.266H4.453v-.46a.613.613 0 0 1 .613-.613h2.147a.613.613 0 0 1 .613.613zm.613-.46a.613.613 0 0 1 .613-.613H11.2a.613.613 0 0 1 .613.613v.46H8.439zm5.213 3.526H2.613V9.979h11.039z" transform="translate(-.774 -1.69)" style="fill:#ccc"/>
        </g>
    </g>
</svg>
