<svg data-name="Layer 2" xmlns="http://www.w3.org/2000/svg" width="24" height="24" viewBox="0 0 24 24">
    <g data-name="Layer 2">
        <path data-name="Path 880" d="M11.78 18.8A13.48 13.48 0 0 1 10 20.2 14.53 14.53 0 0 1 3.5 8.1V6.38L10 3.59l6.5 2.79v2.09h.51a6.37 6.37 0 0 1 1 .08 3.09 3.09 0 0 0 0-.43V6a1 1 0 0 0-.61-.92l-7-3a1 1 0 0 0-.78 0l-7 3A1 1 0 0 0 2 6v2.1A16 16 0 0 0 10 22a15.31 15.31 0 0 0 2.8-2.06 5.28 5.28 0 0 1-1.02-1.14z" style="fill:#b78457"/>
        <path data-name="Path 881" d="M20.5 10.21v1.17A4.89 4.89 0 0 0 17.88 10a5.14 5.14 0 0 0-.88 0 3.18 3.18 0 0 0-.62 0 5 5 0 1 0 4.15 8.49l-1.06-1.06a3.49 3.49 0 0 1-4.65.25 3.32 3.32 0 0 1-1-1.23A3.28 3.28 0 0 1 13.5 15a3.5 3.5 0 0 1 2.57-3.37 3.37 3.37 0 0 1 1.56-.07 3.48 3.48 0 0 1 1.81.94h-1.19V14h3a.73.73 0 0 0 .55-.25.71.71 0 0 0 .17-.47v-3z" style="fill:#b78457"/>
    </g>
</svg>
