<svg xmlns="http://www.w3.org/2000/svg" width="20" height="19.988" viewBox="0 0 20 19.988">
    <g data-name="Group 69068" transform="translate(-50 -114.006)">
        <rect data-name="Rectangle 2972" width="5" height="5" rx="1" transform="translate(57.5 121.506)" style="fill:#b78457"/>
        <path d="M3.4 0a3.4 3.4 0 1 0 3.4 3.4A3.408 3.408 0 0 0 3.4 0zm0 5.636A2.232 2.232 0 1 1 5.636 3.4 2.235 2.235 0 0 1 3.4 5.636z" transform="translate(56.591 120.596)" style="fill:#fff"/>
        <path data-name="Vector" d="M19.414 9.408h-2.15a7.3 7.3 0 0 0-6.684-6.683V.586a.586.586 0 0 0-1.172 0v2.139a7.3 7.3 0 0 0-6.682 6.683H.586a.586.586 0 0 0 0 1.172h2.14a7.3 7.3 0 0 0 6.683 6.683V19.4a.586.586 0 0 0 1.172 0v-2.137a7.3 7.3 0 0 0 6.683-6.683h2.151a.586.586 0 0 0 0-1.172zm-9.42 6.707a6.121 6.121 0 1 1 6.121-6.121 6.128 6.128 0 0 1-6.121 6.121z" transform="translate(50 114.006)" style="fill:#0c2757"/>
    </g>
</svg>
