<svg data-name="Group 68308" xmlns="http://www.w3.org/2000/svg" width="15.743" height="15.734" viewBox="0 0 15.743 15.734">
    <path data-name="Path 58834" d="M18.138 17.538V7.245a.6.6 0 0 0-.606-.606h-7.266v-.605a.606.606 0 0 0-.227-.473L7.012 3.139a.538.538 0 0 0-.049-.025.6.6 0 0 0-.107-.055.618.618 0 0 0-.108-.034.625.625 0 0 0-.117-.009.548.548 0 0 0-.109.009.6.6 0 0 0-.114.035.62.62 0 0 0-.1.053c-.016.011-.035.014-.05.026L3.227 5.561A.606.606 0 0 0 3 6.034v12.11a.6.6 0 0 0 .606.606h14.532a.606.606 0 1 0 0-1.211zM16.927 7.85v9.688h-1.211v-2.422a1.212 1.212 0 0 0-1.216-1.211h-1.812a1.212 1.212 0 0 0-1.211 1.211v2.422h-1.211V7.85zM14.5 17.538h-1.812v-2.422H14.5zM4.211 6.324l2.422-1.937 2.422 1.937v11.214H4.211z" transform="translate(-3 -3.015)" style="fill:#b78457"/>
    <path data-name="Path 58835" d="M7.606 10.211h1.211a.606.606 0 1 0 0-1.211H7.606a.606.606 0 1 0 0 1.211z" transform="translate(-4.578 -5.376)" style="fill:#b78457"/>
    <path data-name="Path 58836" d="M8.817 13H7.606a.606.606 0 1 0 0 1.211h1.211a.606.606 0 1 0 0-1.211z" transform="translate(-4.578 -6.954)" style="fill:#b78457"/>
    <path data-name="Path 58837" d="M8.817 17H7.606a.606.606 0 1 0 0 1.211h1.211a.606.606 0 1 0 0-1.211z" transform="translate(-4.578 -8.532)" style="fill:#b78457"/>
    <path data-name="Path 58838" d="M18.606 14.211h1.817a.606.606 0 0 0 0-1.211h-1.817a.606.606 0 0 0 0 1.211z" transform="translate(-8.917 -6.954)" style="fill:#b78457"/>
    <path data-name="Path 58839" d="M18.606 18.211h1.817a.606.606 0 0 0 0-1.211h-1.817a.606.606 0 0 0 0 1.211z" transform="translate(-8.917 -8.532)" style="fill:#b78457"/>
</svg>
